<svg id="B-P" xmlns="http://www.w3.org/2000/svg" width="302mm" height="85mm" viewBox="0 0 856.06 240.94"><defs><style>.cls-1{fill:#649600;}</style></defs><g id="Easy"><path class="cls-1" d="M70.87,170.08V70.87h70.86v17l-51,0v22.64h42.52v17H90.71v25.51h51v17Z"/><path class="cls-1" d="M200.1,170c-1.75-2.15-2.89-6.48-2.89-10.25-6.59,6.86-14,10.35-22.07,10.35-12.11,0-22.07-6.72-22.07-20.83,0-13.17,7-19.35,21.4-21.91L182,126c9.42-1.61,15.08-.81,15.08-8.47q0-7.26-10.91-7.25c-9.28,0-12.38,2.41-13.32,9.94H154.69C155.9,103.42,166.12,95,185.77,95s29.74,7.65,29.74,22.44v40.32c0,3.76,1.68,6.89,5.05,10V170Zm-3-35.38c-2.16,1.07-3,1.34-7.94,2.29l-6.46,1.2c-7.81,1.48-10.77,3.5-10.77,9s3.9,7.79,10.23,7.79c9.55,0,14.94-6.18,14.94-17.06Z"/><path class="cls-1" d="M277.7,129.09l-22.94-6.85c-5.25-1.48-6.59-2.69-6.59-5.65,0-4,4.3-6.72,10.9-6.72,9,0,13.46,3.23,13.59,9.81v.54h18.17v-.54C290.56,104.36,278.72,95,259.2,95c-18.43,0-29.87,9.4-29.87,24.32,0,8.87,2.42,13.71,15.88,17.87l22.47,7c4.71,1.48,5.45,3,5.45,5,0,4.43-4.37,6.18-13.12,6.18s-13.19-1.62-14.8-9.41H226.77c.54,15.86,12.25,24.19,34.32,24.19,20.45,0,30.88-8.06,30.88-22.71v-.94C292,138.09,287.26,131.91,277.7,129.09Z"/><path class="cls-1" d="M338.87,182.28c-5,13.86-11.57,16.15-24.22,16.15a42.63,42.63,0,0,1-6.73-.54V183.76a16.38,16.38,0,0,0,5,.81c6.6,0,11.79-6.59,11.79-13.45v-.41L297.64,95h20.72l16,52.88L349.13,95H368.5Z"/></g><g id="Homes"><polygon points="400.86 121.59 452.37 121.59 452.37 170.08 464.88 170.08 464.88 70.87 452.37 70.87 452.37 110.55 400.86 110.55 400.86 70.87 388.35 70.87 388.35 170.08 400.86 170.08 400.86 121.59"/><path d="M507.4,170.08c19.34,0,31.18-13.59,31.18-36.74C538.58,109,527.14,95,507.27,95c-19.34,0-31,14.16-31,37.84S487.8,170.08,507.4,170.08Zm0-64.62c12.37,0,19.74,10.25,19.74,27.75,0,16.55-7.63,26.51-19.74,26.51s-19.74-9.82-19.74-26.92S495.16,105.46,507.4,105.46Z"/><path d="M632.19,119.13v51h11.27v-55.3C643.46,102,636.4,95,623.1,95c-9.5,0-15.21,2.85-21.86,10.86C597,98.22,591.33,95,582.1,95c-9.51,0-15.75,3.53-21.86,12.08V95H549.92v75.12h11.27V123.47c0-10.32,7.47-18.6,16.7-18.6,8.42,0,13.17,5.16,13.17,14.26v51h11.27V123.47c0-10.32,7.6-18.6,16.83-18.6C627.44,104.87,632.19,110.17,632.19,119.13Z"/><path d="M686.18,170.08c15.83,0,26.69-9.3,29.45-23.68H704.56c-3,9.36-9.15,13.24-18,13.24-11.47,0-20-7.59-20.3-23.86h50.89c0-10.31-.79-16.82-2.77-22.11C709.92,102,699.37,95,686.45,95c-19.25,0-31.65,14.64-31.65,38S666.8,170.08,686.18,170.08Zm.14-64.68c10.81,0,19.11,9.22,19.11,20.34a2.46,2.46,0,0,1-.13.81H666.54C667.46,113.94,675.24,105.4,686.32,105.4Z"/><path d="M785.2,148.11c0-10.57-5.87-15.86-19.75-19.25l-10.66-2.58c-9.08-2.17-12.94-5.15-12.94-10.17,0-6.51,5.73-10.71,14.8-10.71s13.74,3.93,14,11.39h11.73c-.13-14-9.2-21.83-25.34-21.83s-26.81,8.54-26.81,21.69c0,11.12,5.6,16.41,22.14,20.48l10.41,2.58c7.73,1.9,10.8,4.2,10.8,9.35,0,6.65-6.53,10.58-16.27,10.58-10,0-15.61-2.81-17.07-13.66H728.5c.54,16.41,9.61,24.1,27.89,24.1C774,170.08,785.2,161.81,785.2,148.11Z"/></g><polygon points="785.2 77.95 718.58 51.02 654.8 77.95 654.8 69.45 718.58 42.52 785.2 69.45 785.2 77.95"/></svg>